<?xml version="1.0" encoding="UTF-8"?>
<svg id="Layer_5" xmlns="http://www.w3.org/2000/svg" viewBox="0 0 822.93 822.93">
  
  <g id="SVGRepo_iconCarrier">
    <g>
      <path class="cls-1" d="M411.46,822.93c-109.91,0-213.23-42.8-290.95-120.51C42.8,624.7,0,521.37,0,411.46S42.8,198.23,120.51,120.51C198.23,42.8,301.56,0,411.46,0s213.23,42.8,290.95,120.51c77.72,77.72,120.51,181.04,120.51,290.95v13.15c0,72.07-58.64,130.71-130.71,130.71s-130.71-58.64-130.71-130.71v-13.15c0-82.73-67.31-150.04-150.04-150.04s-150.05,67.31-150.05,150.04,67.31,150.04,150.04,150.04c20.05,0,39.49-3.88,57.79-11.52,19.71-8.23,42.36,1.07,50.59,20.77,8.23,19.71-1.07,42.36-20.77,50.59-27.8,11.61-57.27,17.5-87.61,17.5-125.38,0-227.39-102.01-227.39-227.39s102.01-227.39,227.39-227.39,227.39,102.01,227.39,227.39v13.15c0,29.43,23.94,53.37,53.37,53.37s53.37-23.94,53.37-53.37v-13.15c0-184.23-149.89-334.12-334.12-334.12S77.34,227.23,77.34,411.46s149.89,334.12,334.12,334.12c93.2,0,179.69-37.42,243.54-105.37,14.63-15.56,39.1-16.32,54.66-1.7,15.56,14.62,16.33,39.1,1.7,54.66-38.08,40.52-83.07,72.42-133.73,94.81-52.47,23.19-108.38,34.94-166.17,34.94Z"/>
      <path class="cls-1" d="M361.94,508.35c-3.08,0-6.19-.83-9-2.58-13.62-8.46-25.47-20.03-34.28-33.43-5.18-7.88-2.99-18.47,4.89-23.64,7.88-5.18,18.46-2.99,23.64,4.89,6.11,9.29,14.33,17.31,23.77,23.18,8.01,4.98,10.46,15.51,5.49,23.51-3.23,5.2-8.81,8.06-14.51,8.06Z"/>
      <path class="cls-1" d="M317.56,428.54c-9.43,0-17.07-7.64-17.07-17.07,0-61.19,49.78-110.98,110.98-110.98,9.43,0,17.07,7.64,17.07,17.07s-7.64,17.07-17.07,17.07c-42.36,0-76.83,34.47-76.83,76.83,0,9.43-7.64,17.07-17.07,17.07Z"/>
    </g>
  </g>
</svg>